<svg width="60px" height="20px" viewBox="0 0 60 20" version="1.1" xmlns="http://www.w3.org/2000/svg" xmlns:xlink="http://www.w3.org/1999/xlink">
    <g id="Pages" stroke="none" stroke-width="1" fill="none" fill-rule="evenodd">
        <g id="Checkout_Desktop" transform="translate(-47.000000, -46.000000)" fill="#000000">
            <g id="APPS-2" transform="translate(47.472656, 46.332031)">
                <path d="M11.3510742,11.7729492 L6.57861328,11.7729492 C5.9282194,11.7729492 5.52392657,11.8256831 5.36572266,11.9311523 C5.20751874,12.0366216 4.99658335,12.3881806 4.73291016,12.9858398 L3.87597656,14.9238281 C3.48925588,15.8115279 3.29589844,16.470701 3.29589844,16.9013672 C3.29589844,17.3144552 3.39916889,17.6132803 3.60571289,17.7978516 C3.81225689,17.9824228 4.21874697,18.1406243 4.82519531,18.2724609 C5.08886851,18.3251956 5.22509761,18.4306633 5.23388672,18.5888672 C5.24267583,18.738282 5.11963018,18.8129883 4.86474609,18.8129883 C4.76806592,18.8129883 4.61865335,18.8085938 4.41650391,18.7998047 L3.15087891,18.7338867 C2.7290018,18.7163085 2.24121371,18.7075195 1.6875,18.7075195 C1.43261591,18.7075195 1.23486398,18.711914 1.09423828,18.7207031 C0.645993853,18.7558596 0.399902563,18.7734375 0.355957031,18.7734375 C0.118651157,18.7734375 0,18.6943367 0,18.5361328 C0,18.3955071 0.0747062842,18.3032229 0.224121094,18.2592773 L0.711914062,18.1142578 C0.887696191,18.0615232 1.12499851,17.8483905 1.42382812,17.4748535 C1.72265774,17.1013165 1.96874903,16.7124044 2.16210938,16.3081055 L2.54443359,15.4379883 L9.32080078,0.395507812 C9.43505917,0.131834619 9.5624993,0 9.703125,0 C9.8437507,0 9.96240186,0.127440132 10.059082,0.382324219 L15.7280273,14.8842773 L16.0180664,15.5961914 C16.4311544,16.6596733 16.7739244,17.3210436 17.0463867,17.5803223 C17.318849,17.8396009 17.8725544,18.0439446 18.7075195,18.1933594 C18.9799818,18.246094 19.1118165,18.3559562 19.1030273,18.5229492 C19.0942382,18.672364 18.9711926,18.7470703 18.7338867,18.7470703 C18.6547848,18.7470703 18.4877942,18.7382813 18.2329102,18.7207031 C17.7758766,18.6767576 16.9628965,18.6547852 15.7939453,18.6547852 C14.5722595,18.6547852 13.8076187,18.6811521 13.5,18.7338867 C13.3154288,18.7690431 13.1791997,18.7866211 13.0913086,18.7866211 C12.8627918,18.7866211 12.7485352,18.6943369 12.7485352,18.5097656 C12.7485352,18.3691399 12.8583973,18.2768557 13.078125,18.2329102 L13.4868164,18.140625 C13.9262717,18.0527339 14.1459961,17.7539088 14.1459961,17.2441406 C14.1459961,16.778318 13.8779324,15.8510812 13.3417969,14.4624023 L12.6826172,12.722168 C12.498046,12.2387671 12.3530279,11.9597172 12.2475586,11.8850098 C12.1420893,11.8103024 11.8432642,11.7729492 11.3510742,11.7729492 Z M11.5092773,9.66357422 L9.43945312,4.44287109 L9.33398438,4.16601562 C9.2285151,3.88476422 9.11425843,3.73974614 8.99121094,3.73095703 C8.92968719,3.72216792 8.8593754,3.80566318 8.78027344,3.98144531 L6.20947266,9.68994141 C6.09521427,9.93603639 6.03808594,10.0986324 6.03808594,10.1777344 C6.03808594,10.4062511 6.24023235,10.5205078 6.64453125,10.5205078 L7.00048828,10.5336914 L10.9819336,10.5336914 C11.4213889,10.5336914 11.6411133,10.4238292 11.6411133,10.2041016 C11.6411133,10.1425778 11.6191408,10.0415046 11.5751953,9.90087891 L11.5092773,9.66357422 Z M23.9441406,2.76855469 L23.9441406,13.7636719 L23.930957,15.0424805 L23.9705078,16.1499023 C24.067188,17.2133842 24.4626918,17.8330069 25.1570313,18.0087891 C25.6404321,18.1406257 26.0051746,18.206543 26.2512695,18.206543 C26.5149427,18.206543 26.6511718,18.2856437 26.6599609,18.4438477 C26.6775392,18.6723644 26.5237321,18.7866211 26.1985352,18.7866211 C26.0491203,18.7866211 25.7546897,18.7690431 25.3152344,18.7338867 C25.033983,18.7163085 24.5769563,18.7075195 23.9441406,18.7075195 L23.0081055,18.6811523 L21.9797852,18.6943359 C21.4612279,18.6943359 21.0701185,18.7119139 20.8064453,18.7470703 C20.4636702,18.7910158 20.2131844,18.8129883 20.0549805,18.8129883 C19.8264637,18.8129883 19.712207,18.7250985 19.712207,18.5493164 C19.712207,18.3823234 19.8572251,18.2768557 20.1472656,18.2329102 C20.8328159,18.1274409 21.3008288,17.740726 21.5513184,17.0727539 C21.8018079,16.4047818 21.9270508,15.2006923 21.9270508,13.4604492 L21.9270508,5.45800781 C21.9270508,3.61229546 21.8171886,2.44555908 21.5974609,1.95776367 C21.3777333,1.46996826 20.8284224,1.17773486 19.9495117,1.08105469 C19.7122058,1.06347647 19.5979492,0.975586729 19.6067383,0.817382812 C19.6155274,0.615233364 19.7869124,0.514160156 20.1208984,0.514160156 C20.2878915,0.514160156 20.5120103,0.536132593 20.7932617,0.580078125 C21.3469754,0.659180083 21.8040021,0.698730469 22.1643555,0.698730469 C22.7268583,0.698730469 23.5442329,0.650391108 24.6165039,0.553710938 C25.1702176,0.509765405 25.6228498,0.487792969 25.9744141,0.487792969 C27.8113373,0.487792969 29.3032657,0.929438943 30.4502441,1.81274414 C31.5972225,2.69604934 32.1707031,3.84960226 32.1707031,5.2734375 C32.1707031,6.99610236 31.4675852,8.35399894 30.0613281,9.34716797 C29.0066354,10.0854529 27.8904356,10.4545898 26.7126953,10.4545898 C26.1589816,10.4545898 25.6514183,10.393067 25.1899902,10.2700195 C24.7285621,10.146972 24.5066405,10.0151374 24.5242188,9.87451172 C24.541797,9.76904244 24.6252922,9.71630859 24.774707,9.71630859 C24.8450199,9.71630859 24.9329096,9.72949206 25.0383789,9.75585938 C25.2405284,9.81738312 25.5657204,9.84814453 26.0139648,9.84814453 C27.2795962,9.84814453 28.2925255,9.50098003 29.0527832,8.80664062 C29.8130409,8.11230122 30.1931641,7.18945888 30.1931641,6.03808594 C30.1931641,4.71093086 29.6921925,3.61230904 28.6902344,2.7421875 C27.6882762,1.87206596 26.4182694,1.43701172 24.8801758,1.43701172 C24.5286115,1.43701172 24.2869147,1.50292903 24.1550781,1.63476562 C24.0232415,1.76660222 23.9573242,2.017088 23.9573242,2.38623047 L23.9441406,2.76855469 Z M38.1851563,2.76855469 L38.1851563,13.7636719 L38.1719727,15.0424805 L38.2115234,16.1499023 C38.3082036,17.2133842 38.7037075,17.8330069 39.3980469,18.0087891 C39.8814477,18.1406257 40.2461902,18.206543 40.4922852,18.206543 C40.7559583,18.206543 40.8921875,18.2856437 40.9009766,18.4438477 C40.9185548,18.6723644 40.7647477,18.7866211 40.4395508,18.7866211 C40.290136,18.7866211 39.9957053,18.7690431 39.55625,18.7338867 C39.2749986,18.7163085 38.8179719,18.7075195 38.1851563,18.7075195 L37.2491211,18.6811523 L36.2208008,18.6943359 C35.7022435,18.6943359 35.3111341,18.7119139 35.0474609,18.7470703 C34.7046858,18.7910158 34.4542,18.8129883 34.2959961,18.8129883 C34.0674793,18.8129883 33.9532227,18.7250985 33.9532227,18.5493164 C33.9532227,18.3823234 34.0982407,18.2768557 34.3882813,18.2329102 C35.0738316,18.1274409 35.5418445,17.740726 35.792334,17.0727539 C36.0428235,16.4047818 36.1680664,15.2006923 36.1680664,13.4604492 L36.1680664,5.45800781 C36.1680664,3.61229546 36.0582042,2.44555908 35.8384766,1.95776367 C35.6187489,1.46996826 35.069438,1.17773486 34.1905273,1.08105469 C33.9532215,1.06347647 33.8389648,0.975586729 33.8477539,0.817382812 C33.856543,0.615233364 34.027928,0.514160156 34.3619141,0.514160156 C34.5289071,0.514160156 34.7530259,0.536132593 35.0342773,0.580078125 C35.587991,0.659180083 36.0450177,0.698730469 36.4053711,0.698730469 C36.9678739,0.698730469 37.7852485,0.650391108 38.8575195,0.553710938 C39.4112332,0.509765405 39.8638654,0.487792969 40.2154297,0.487792969 C42.0523529,0.487792969 43.5442814,0.929438943 44.6912598,1.81274414 C45.8382382,2.69604934 46.4117188,3.84960226 46.4117188,5.2734375 C46.4117188,6.99610236 45.7086008,8.35399894 44.3023438,9.34716797 C43.247651,10.0854529 42.1314512,10.4545898 40.9537109,10.4545898 C40.3999972,10.4545898 39.8924339,10.393067 39.4310059,10.2700195 C38.9695778,10.146972 38.7476562,10.0151374 38.7652344,9.87451172 C38.7828126,9.76904244 38.8663078,9.71630859 39.0157227,9.71630859 C39.0860355,9.71630859 39.1739253,9.72949206 39.2793945,9.75585938 C39.481544,9.81738312 39.806736,9.84814453 40.2549805,9.84814453 C41.5206118,9.84814453 42.5335411,9.50098003 43.2937988,8.80664062 C44.0540565,8.11230122 44.4341797,7.18945888 44.4341797,6.03808594 C44.4341797,4.71093086 43.9332081,3.61230904 42.93125,2.7421875 C41.9292919,1.87206596 40.659285,1.43701172 39.1211914,1.43701172 C38.7696271,1.43701172 38.5279303,1.50292903 38.3960938,1.63476562 C38.2642572,1.76660222 38.1983398,2.017088 38.1983398,2.38623047 L38.1851563,2.76855469 Z M53.8631836,0.31640625 C54.803618,0.31640625 55.5990202,0.452635356 56.2494141,0.725097656 L57.159082,1.10742188 C57.238184,1.1425783 57.3172848,1.16015625 57.3963867,1.16015625 C57.501856,1.16015625 57.6073237,1.11621138 57.712793,1.02832031 L57.8973633,0.870117188 C57.9237306,0.834960762 57.97207,0.817382812 58.0423828,0.817382812 C58.2621105,0.808593706 58.3719727,1.02392358 58.3719727,1.46337891 C58.3719727,1.61279372 58.429101,2.05663693 58.5433594,2.79492188 L58.7542969,4.15283203 C58.7982424,4.44287254 58.8202148,4.62304652 58.8202148,4.69335938 C58.8202148,4.96582167 58.7279306,5.10205078 58.5433594,5.10205078 C58.4027337,5.10205078 58.2621101,4.89111539 58.1214844,4.46923828 C57.8050765,3.52001479 57.1612842,2.73779604 56.1900879,2.12255859 C55.2188916,1.50732114 54.1356505,1.19970703 52.940332,1.19970703 C51.9911085,1.19970703 51.1979036,1.47875698 50.5606934,2.03686523 C49.9234831,2.59497349 49.6048828,3.29149973 49.6048828,4.12646484 C49.6048828,4.86474979 49.8114237,5.50195044 50.2245117,6.03808594 C50.5848651,6.49511947 50.9781717,6.82910051 51.4044434,7.04003906 C51.830715,7.25097762 52.8788002,7.63329801 54.5487305,8.18701172 C57.8006999,9.2504936 59.4266602,10.9951051 59.4266602,13.4208984 C59.4266602,15.0644613 58.8290099,16.4091745 57.6336914,17.4550781 C56.4383729,18.5009818 54.9046969,19.0239258 53.0326172,19.0239258 C52.355856,19.0239258 51.6109904,18.9272471 50.797998,18.7338867 C49.9850057,18.5405264 49.3895527,18.3164062 49.0116211,18.0615234 C48.8534172,17.9560542 48.7479495,17.8439947 48.6952148,17.7253418 C48.6424802,17.6066889 48.5633794,17.301272 48.4579102,16.809082 C48.4403319,16.7387692 48.3304698,16.3388708 48.1283203,15.609375 C47.8998035,14.8183554 47.7855469,14.255861 47.7855469,13.921875 C47.7855469,13.6582018 47.8734366,13.5307617 48.0492187,13.5395508 C48.2074227,13.5483399 48.3480463,13.7636698 48.4710937,14.1855469 C48.7875016,15.2753961 49.4554637,16.1894494 50.475,16.9277344 C51.4945363,17.6660193 52.6019471,18.0351562 53.7972656,18.0351562 C55.0101623,18.0351562 56.0362751,17.6792028 56.8756348,16.9672852 C57.7149944,16.2553675 58.134668,15.3896535 58.134668,14.3701172 C58.134668,13.3945264 57.7479531,12.5727572 56.9745117,11.9047852 C56.5790019,11.56201 55.4364352,11.0742219 53.5467773,10.4414062 C51.5955957,9.78222327 50.2135295,9.05273837 49.4005371,8.25292969 C48.5875448,7.453121 48.1810547,6.416022 48.1810547,5.14160156 C48.1810547,3.71776632 48.7105904,2.55762167 49.7696777,1.66113281 C50.8287651,0.764643955 52.1932534,0.31640625 53.8631836,0.31640625 Z" id="APPS"></path>
            </g>
        </g>
    </g>
</svg>